<?xml version="1.0" encoding="utf-8"?>
<!-- Generator: Adobe Illustrator 19.1.0, SVG Export Plug-In . SVG Version: 6.00 Build 0)  -->
<svg version="1.1" id="Layer_1" xmlns="http://www.w3.org/2000/svg" xmlns:xlink="http://www.w3.org/1999/xlink" x="0px" y="0px"
	 viewBox="0 0 609.8 665.3" style="enable-background:new 0 0 609.8 665.3;" xml:space="preserve">
<style type="text/css">
	.st0{fill:#FFFFFF;}
	.st1{fill:url(#SVGID_1_);}
	.st2{fill:url(#SVGID_2_);}
	.st3{fill:url(#SVGID_3_);}
	.st4{fill:url(#SVGID_4_);}
	.st5{fill:url(#SVGID_5_);}
	.st6{fill:url(#SVGID_6_);}
	.st7{fill:url(#SVGID_7_);}
	.st8{fill:url(#SVGID_8_);fill-opacity:0.39;}
	.st9{fill:url(#SVGID_9_);}
	.st10{fill:url(#SVGID_10_);}
	.st11{fill:url(#SVGID_11_);}
</style>
<path class="st0" d="M399.7,139.3c-1.7-7.1-5.7-12.4-12-16c3.9,0,7.8,0,12,0C399.7,128.6,399.7,133.9,399.7,139.3z"/>
<g>
	<linearGradient id="SVGID_1_" gradientUnits="userSpaceOnUse" x1="192.4306" y1="78.6926" x2="443.9966" y2="78.6926">
		<stop  offset="0" style="stop-color:#4D4D4D"/>
		<stop  offset="0.5254" style="stop-color:#424242"/>
		<stop  offset="1" style="stop-color:#1A1A1A"/>
	</linearGradient>
	<path class="st1" d="M441.3,156.9L441.3,156.9c-1.5,0-2.6-0.8-2.7-1.7c-0.3-44-12.6-82.2-35.6-110.1C382.1,19.6,354.3,5,324.7,4
		c-28-0.9-55.4,10.9-77.1,33.4c-24.8,25.5-42,64.1-49.8,111.7c-0.2,0.9-1.5,1.6-2.9,1.5v0c-1.5-0.1-2.5-0.9-2.4-1.9
		c7.9-48.1,25.4-87.1,50.6-113.1c22.8-23.6,51.9-36,81.9-35c31.5,1,61,16.4,82.8,43c23.4,28.4,35.9,66.8,36.2,111.6
		C444,156.1,442.8,156.9,441.3,156.9z"/>
</g>
<linearGradient id="SVGID_2_" gradientUnits="userSpaceOnUse" x1="540" y1="395.801" x2="564.6354" y2="395.801">
	<stop  offset="0" style="stop-color:#1A1A1A"/>
	<stop  offset="0.8686" style="stop-color:#4D4D4D"/>
</linearGradient>
<polygon class="st2" points="563.9,128.3 564.6,563.4 540,663.3 540,132.1 "/>
<linearGradient id="SVGID_3_" gradientUnits="userSpaceOnUse" x1="563.5746" y1="358.9629" x2="609.4561" y2="358.9629">
	<stop  offset="0" style="stop-color:#4D4D4D"/>
	<stop  offset="0" style="stop-color:#1A1A1A"/>
	<stop  offset="0.7538" style="stop-color:#424242"/>
</linearGradient>
<polygon class="st3" points="563.6,128.8 564.6,564.3 609.5,599.3 608.5,118.6 "/>
<linearGradient id="SVGID_4_" gradientUnits="userSpaceOnUse" x1="540" y1="613.8514" x2="609.4561" y2="613.8514">
	<stop  offset="3.914222e-02" style="stop-color:#4D4D4D"/>
	<stop  offset="1" style="stop-color:#333333"/>
</linearGradient>
<polygon class="st4" points="540,664.3 564.6,563.4 609.5,599.3 "/>
<linearGradient id="SVGID_5_" gradientUnits="userSpaceOnUse" x1="12.5401" y1="117.184" x2="608.4687" y2="117.184">
	<stop  offset="0" style="stop-color:#4D4D4D"/>
	<stop  offset="1" style="stop-color:#1A1A1A"/>
</linearGradient>
<polygon class="st5" points="12.5,109 50.4,102.2 608.5,118.6 563.4,128.8 540.8,132.1 "/>
<g>
	<linearGradient id="SVGID_6_" gradientUnits="userSpaceOnUse" x1="156.4932" y1="87.7412" x2="408.0593" y2="87.7412">
		<stop  offset="0" style="stop-color:#4D4D4D"/>
		<stop  offset="0" style="stop-color:#1A1A1A"/>
		<stop  offset="0.5254" style="stop-color:#424242"/>
	</linearGradient>
	<path class="st6" d="M405.4,165.9L405.4,165.9c-1.5,0-2.6-0.8-2.7-1.7c-0.3-44-12.6-82.2-35.6-110.1c-21-25.5-48.8-40.1-78.4-41.1
		c-28-0.9-55.4,10.9-77.1,33.4c-24.8,25.5-42,64.1-49.8,111.7c-0.2,0.9-1.5,1.6-2.9,1.5l0,0c-1.5-0.1-2.5-0.9-2.4-1.9
		c7.9-48.1,25.4-87.1,50.6-113.1c22.8-23.6,51.9-36,81.9-35c31.5,1,61,16.4,82.8,43c23.4,28.4,35.9,66.8,36.2,111.6
		C408.1,165.1,406.9,165.9,405.4,165.9z"/>
</g>
<linearGradient id="SVGID_7_" gradientUnits="userSpaceOnUse" x1="1.3102" y1="386.6308" x2="540" y2="386.6308">
	<stop  offset="0" style="stop-color:#1A1A1A"/>
	<stop  offset="1" style="stop-color:#4D4D4D"/>
</linearGradient>
<polygon class="st7" points="12,109 12,519 1.3,611.7 540,664.3 540,132.1 "/>
<linearGradient id="SVGID_8_" gradientUnits="userSpaceOnUse" x1="307.5875" y1="-24.904" x2="261.8064" y2="503.3563">
	<stop  offset="0" style="stop-color:#4D4D4D;stop-opacity:0.1"/>
	<stop  offset="0.4448" style="stop-color:#4A4A4A;stop-opacity:0.9176"/>
	<stop  offset="1" style="stop-color:#1A1A1A"/>
</linearGradient>
<polygon class="st8" points="10.6,109 541.4,132.1 541.6,568.1 12.3,522.8 "/>
<linearGradient id="SVGID_9_" gradientUnits="userSpaceOnUse" x1="12" y1="298.6747" x2="541.9882" y2="298.6747">
	<stop  offset="0" style="stop-color:#1A1A1A"/>
	<stop  offset="0.6691" style="stop-color:#4E4E4E;stop-opacity:0.969"/>
	<stop  offset="1" style="stop-color:#666666;stop-opacity:0.1"/>
</linearGradient>
<path class="st9" d="M12,109v294.9v84.5c0,0,132.8-134.6,239.6-202.8C372.7,208.3,542,132.2,542,132.2L12,109z"/>
<linearGradient id="SVGID_10_" gradientUnits="userSpaceOnUse" x1="2138.3767" y1="-802.3243" x2="2112.4839" y2="-712.319" gradientTransform="matrix(-0.1311 0.9914 0.9914 0.1311 1623.9849 -1400.3164)">
	<stop  offset="0" style="stop-color:#333333"/>
	<stop  offset="1" style="stop-color:#FFFFFF"/>
</linearGradient>
<polygon class="st10" points="564.6,563.4 540,568.1 540,664.3 "/>
<linearGradient id="SVGID_11_" gradientUnits="userSpaceOnUse" x1="2083.1616" y1="-770.7119" x2="2052.5803" y2="-664.4092" gradientTransform="matrix(-0.1371 1.0368 0.9914 0.1311 1634.7537 -1481.7675)">
	<stop  offset="0" style="stop-color:#333333"/>
	<stop  offset="1" style="stop-color:#FFFFFF"/>
</linearGradient>
<polygon class="st11" points="564.6,563.4 609.3,546.7 609.5,599.3 "/>
</svg>
