<?xml version="1.0" encoding="utf-8"?>
<!-- Generator: Adobe Illustrator 19.1.0, SVG Export Plug-In . SVG Version: 6.00 Build 0)  -->
<svg height="610" width="619" version="1.1" id="Layer_1" xmlns="http://www.w3.org/2000/svg" xmlns:xlink="http://www.w3.org/1999/xlink" x="0px" y="0px"
	 viewBox="0 0 609.8 618.6" style="enable-background:new 0 0 609.8 618.6;" xml:space="preserve">
<style type="text/css">
	.st0{fill:url(#SVGID_1_);}
</style>
<linearGradient id="SVGID_1_" gradientUnits="userSpaceOnUse" x1="0.4529" y1="309.5993" x2="609.75" y2="309.5993">
	<stop  offset="0" style="stop-color:#1A1A1A"/>
	<stop  offset="1" style="stop-color:#4D4D4D"/>
</linearGradient>
<path class="st0" d="M609.8,560.5L439,389.7c51.6-69,67.6-166.1,20.2-263.8c-20.9-43.1-56.3-77.8-99.7-98.2
	c-222-105-439.8,115.5-329.4,337.6c20.1,40.5,53.3,73.3,93.8,93.3c93.6,46.2,186.9,34,255.5-12.1l172.3,172.3L609.8,560.5z
	 M74.1,342C-16.5,162.6,162.4-16.3,341.8,74.2c31,15.7,56.3,41,72,72C504.3,325.6,325.5,504.5,146,414C115,398.3,89.7,373,74.1,342z
	"/>
</svg>
